<svg width="138" height="41" viewBox="0 0 138 41" fill="none" xmlns="http://www.w3.org/2000/svg">
<path d="M38.4358 25.6511C38.0674 25.0026 37.3956 24.5609 36.4421 24.3375C36.1971 24.2808 35.942 24.2458 35.682 24.2342C34.3001 24.1675 31.643 23.7641 29.3809 21.8087C28.3257 20.8969 26.9188 19.2566 26.202 16.6095C26.047 16.0428 25.7953 13.9041 25.8336 5.94603C25.837 5.06588 25.6686 4.24574 25.3302 3.50895C25.0502 2.90051 24.6801 2.36876 24.23 1.92701C20.6378 -1.59025 12.7497 1.13855 8.54903 4.08905C1.18278 9.26493 0.360974 18.0831 0.329302 18.4565C-0.0157572 22.5472 0.997749 26.8163 3.18312 30.4786C5.35682 34.1258 8.61071 37.0397 12.3463 38.6833C12.8614 38.91 16.127 40.2686 20.4261 40.2686C22.6048 40.2686 25.0485 39.9185 27.5339 38.8967C32.9032 36.6896 37.3039 31.9155 38.4558 28.5732C38.6592 27.9865 38.7592 27.4514 38.7592 26.968C38.7592 26.4845 38.6525 26.0311 38.4358 25.6511ZM26.9005 37.3547C20.1477 40.1302 13.7266 37.4697 13.0181 37.158C9.59755 35.6511 6.61371 32.9773 4.61336 29.6251C2.60636 26.2595 1.67453 22.3422 1.98958 18.5965C2.01125 18.3465 2.41966 13.9607 5.27514 9.77002C5.0451 11.3286 4.97676 12.9139 5.07344 14.5142C5.76523 25.4644 14.5267 34.4442 25.4569 35.4011C26.122 35.4594 26.7855 35.4877 27.4456 35.4877C28.5308 35.4877 29.6093 35.4111 30.6761 35.2544C29.5076 36.0812 28.2324 36.808 26.9005 37.3547ZM33.4449 32.9356C30.9028 33.7024 28.2657 33.9725 25.6019 33.7408C15.4869 32.854 7.37717 24.5442 6.73706 14.4125C6.58537 11.892 6.87208 9.40996 7.59054 7.02955C8.16897 6.47612 8.80574 5.94603 9.50753 5.45262C9.68089 5.33093 9.85926 5.20924 10.0426 5.09255C9.90093 6.09439 9.82425 7.12957 9.81425 8.18475C9.79258 14.1174 12.1013 19.7384 16.317 24.0091C20.5344 28.2832 26.1237 30.6619 32.0597 30.7069C33.2432 30.7069 34.4201 30.6202 35.577 30.4452C34.9985 31.2637 34.2784 32.1122 33.4449 32.9356ZM36.8805 28.0298C36.8222 28.1982 36.7538 28.3732 36.6755 28.5516C35.1752 28.8749 33.625 29.04 32.0664 29.04C26.5804 28.9983 21.4096 26.7963 17.5039 22.8389C13.5999 18.8832 11.4612 13.6807 11.4812 8.19642C11.4945 6.74617 11.6429 5.34093 11.9229 4.01237C13.5382 3.1939 15.2918 2.56046 16.9305 2.2204C17.8339 2.0337 18.6741 1.94035 19.4359 1.94035C21.0178 1.94035 22.268 2.33875 23.0648 3.11888C23.3682 3.4156 23.6216 3.78066 23.815 4.20407C24.05 4.71916 24.1684 5.30259 24.1667 5.9377C24.1367 12.2438 24.275 15.8777 24.5918 17.0463C25.4202 20.0984 27.0605 22.0071 28.2907 23.0706C30.9312 25.3527 34.005 25.8211 35.602 25.8978C35.762 25.9061 35.917 25.9278 36.0637 25.9611C36.3954 26.0378 36.8255 26.1912 36.9872 26.4745C37.1572 26.7746 37.1189 27.3414 36.8805 28.0298ZM58.4759 33.349C57.3757 33.349 56.3772 33.1407 55.4804 32.7223C54.5835 32.3039 53.8718 31.6971 53.3433 30.902C52.8149 30.1068 52.5515 29.1433 52.5515 28.0131C52.5515 27.018 52.7482 26.2095 53.14 25.5877C53.5317 24.9659 54.0551 24.4775 54.7119 24.1241C55.367 23.7707 56.0938 23.504 56.8889 23.3273C57.6841 23.1506 58.4842 23.0089 59.291 22.9039C60.3462 22.7689 61.203 22.6656 61.8631 22.5922C62.5232 22.5205 63.005 22.3988 63.31 22.2255C63.6151 22.0521 63.7684 21.7504 63.7684 21.3203V21.2303C63.7684 20.1151 63.4651 19.2483 62.8583 18.6299C62.2515 18.0114 61.333 17.703 60.1045 17.703C58.8759 17.703 57.8324 17.9814 57.109 18.5398C56.3855 19.0983 55.8771 19.6934 55.582 20.3268L53.0499 19.4217C53.5017 18.3665 54.1068 17.543 54.8653 16.9512C55.622 16.3595 56.4522 15.9444 57.3523 15.7077C58.2525 15.471 59.141 15.351 60.0145 15.351C60.5729 15.351 61.2147 15.4176 61.9415 15.5493C62.6683 15.681 63.3734 15.9511 64.0552 16.3578C64.7369 16.7645 65.3054 17.3797 65.7571 18.2015C66.2088 19.0233 66.4356 20.1235 66.4356 21.5037V32.9456H63.7668V30.5936H63.6317C63.4517 30.9703 63.15 31.3737 62.7266 31.8038C62.3049 32.2338 61.7431 32.5989 61.0413 32.9006C60.3395 33.2024 59.4844 33.3524 58.4742 33.3524L58.4759 33.349ZM58.8826 30.952C59.9378 30.952 60.8296 30.7453 61.5564 30.3302C62.2832 29.9151 62.8333 29.38 63.2067 28.7249C63.5801 28.0698 63.7668 27.3797 63.7668 26.6562V24.2141C63.6534 24.3492 63.4067 24.4725 63.0266 24.5809C62.6466 24.6909 62.2082 24.7842 61.7148 24.8643C61.2213 24.9426 60.7429 25.011 60.2795 25.0676C59.8161 25.1243 59.441 25.171 59.1543 25.2093C58.4609 25.2993 57.8141 25.4444 57.2157 25.6444C56.6172 25.8444 56.1338 26.1411 55.7687 26.5379C55.4037 26.9346 55.2203 27.4714 55.2203 28.1498C55.2203 29.0766 55.5654 29.7768 56.2555 30.2468C56.9456 30.7186 57.8208 30.9536 58.8843 30.9536L58.8826 30.952ZM81.5515 19.465L79.1544 20.1435C79.0044 19.7434 78.7827 19.3533 78.4926 18.9733C78.2026 18.5932 77.8092 18.2781 77.3107 18.0298C76.8123 17.7814 76.1755 17.6564 75.4004 17.6564C74.3369 17.6564 73.4534 17.8997 72.7483 18.3865C72.0432 18.8732 71.6915 19.4883 71.6915 20.2351C71.6915 20.8986 71.9332 21.422 72.4149 21.8071C72.8967 22.1921 73.6518 22.5122 74.677 22.7689L77.2541 23.4023C78.806 23.7791 79.9629 24.3542 80.7247 25.126C81.4865 25.8994 81.8665 26.8913 81.8665 28.1048C81.8665 29.1 81.5815 29.9901 81.013 30.7736C80.4429 31.5571 79.6511 32.1755 78.6326 32.6273C77.6158 33.079 76.4323 33.3057 75.082 33.3057C73.3101 33.3057 71.8448 32.9206 70.6846 32.1522C69.5244 31.3837 68.7893 30.2602 68.4792 28.7833L71.0113 28.1498C71.2531 29.085 71.7098 29.7851 72.3849 30.2535C73.06 30.7203 73.9435 30.9553 75.037 30.9553C76.2806 30.9553 77.2707 30.6903 78.0042 30.1585C78.7393 29.6267 79.1061 28.9883 79.1061 28.2415C79.1061 27.6381 78.8943 27.1313 78.4726 26.7212C78.0509 26.3112 77.4024 26.0028 76.5273 25.7994L73.6334 25.121C72.0432 24.7442 70.8763 24.1575 70.1345 23.3623C69.3927 22.5672 69.021 21.5704 69.021 20.3718C69.021 19.3917 69.2977 18.5248 69.8528 17.7714C70.4062 17.0179 71.1647 16.4262 72.1249 15.9961C73.0867 15.566 74.1769 15.351 75.3988 15.351C77.1174 15.351 78.4693 15.7277 79.4528 16.4812C80.4363 17.2346 81.1347 18.2298 81.5498 19.4667L81.5515 19.465ZM98.5677 32.9423H95.1755L88.6777 24.7109L86.809 26.4429V32.9423H84.1419V9.78669H86.809V23.309H87.1258L94.7237 15.576H98.0259L90.6864 22.9956L98.5677 32.9423ZM101.186 32.9423V9.78669H103.99V30.4552H114.754V32.9423H101.186ZM118.181 12.6805C117.661 12.6805 117.214 12.5038 116.841 12.1488C116.467 11.7954 116.281 11.3686 116.281 10.8719C116.281 10.3751 116.467 9.94838 116.841 9.59332C117.214 9.23993 117.661 9.06156 118.181 9.06156C118.701 9.06156 119.148 9.23826 119.521 9.59332C119.895 9.94838 120.081 10.3735 120.081 10.8719C120.081 11.3703 119.895 11.7954 119.521 12.1488C119.148 12.5038 118.701 12.6805 118.181 12.6805ZM116.824 32.9423V15.576H119.493V32.9423H116.824ZM129.681 33.304C128.113 33.304 126.739 32.9306 125.561 32.1855C124.38 31.4387 123.462 30.3952 122.802 29.0533C122.142 27.7114 121.812 26.1445 121.812 24.3492C121.812 22.5539 122.142 20.9603 122.802 19.6117C123.462 18.2631 124.38 17.2146 125.561 16.4678C126.741 15.721 128.114 15.3493 129.681 15.3493C131.248 15.3493 132.623 15.7227 133.802 16.4678C134.982 17.2146 135.901 18.2615 136.561 19.6117C137.221 20.9603 137.549 22.5405 137.549 24.3492C137.549 26.1578 137.219 27.7114 136.561 29.0533C135.901 30.3952 134.982 31.4387 133.802 32.1855C132.622 32.9323 131.248 33.304 129.681 33.304ZM129.681 30.907C130.872 30.907 131.852 30.6019 132.62 29.9918C133.389 29.3817 133.959 28.5782 134.327 27.5831C134.696 26.5879 134.881 25.511 134.881 24.3492C134.881 23.1873 134.696 22.1071 134.327 21.1036C133.957 20.1018 133.389 19.2916 132.62 18.6732C131.852 18.0548 130.872 17.7464 129.681 17.7464C128.491 17.7464 127.511 18.0548 126.742 18.6732C125.974 19.2916 125.404 20.1018 125.036 21.1036C124.665 22.1055 124.482 23.1873 124.482 24.3492C124.482 25.511 124.667 26.5879 125.036 27.5831C125.404 28.5782 125.974 29.38 126.742 29.9918C127.511 30.6019 128.491 30.907 129.681 30.907Z" fill="white"/>
</svg>
